<svg width="47" height="44" viewBox="0 0 47 44" fill="none" xmlns="http://www.w3.org/2000/svg">
<g clip-path="url(#clip0_758_1374)">
<path d="M23.5 22.7332C28.764 22.7332 33.0469 18.4564 33.0469 13.1998C33.0469 7.9433 28.764 3.6665 23.5 3.6665C18.236 3.6665 13.9531 7.9433 13.9531 13.1998C13.9531 18.4564 18.236 22.7332 23.5 22.7332Z" fill="white"/>
<path d="M33.1122 23.9793C32.8479 23.8165 32.5093 23.8377 32.2655 24.0335C29.7554 26.0612 26.7239 27.1333 23.5 27.1333C20.2761 27.1333 17.2453 26.0612 14.7352 24.0335C14.4936 23.8377 14.1536 23.8157 13.8885 23.9793C8.4108 27.3475 5.14062 33.187 5.14062 39.6C5.14062 40.0055 5.46962 40.3333 5.875 40.3333H41.125C41.5311 40.3333 41.8594 40.0055 41.8594 39.6C41.8594 33.187 38.5892 27.3475 33.1122 23.9793Z" fill="white"/>
<path d="M20.3289 36.76H17.7089L17.2889 38H15.4989L18.0389 30.98H20.0189L22.5589 38H20.7489L20.3289 36.76ZM19.8889 35.44L19.0189 32.87L18.1589 35.44H19.8889ZM25.0419 30.98V38H23.3319V30.98H25.0419Z" fill="#1877F2"/>
<g clip-path="url(#clip1_758_1374)">
<path d="M31.6994 31.3761L31.0464 31.2007C30.6287 31.0858 30.384 30.8042 30.2692 30.4503L29.9819 29.2839C29.9744 29.2608 29.9561 29.23 29.8998 29.23C29.8525 29.23 29.8253 29.2608 29.8178 29.2839L29.5305 30.4507C29.4151 30.8046 29.1709 31.0862 28.7533 31.2011L28.1003 31.3765C28.008 31.4015 28.0065 31.5101 28.0984 31.5362L28.7561 31.7249C29.1723 31.8401 29.4151 32.1214 29.5305 32.4737L29.8183 33.6272C29.8258 33.6503 29.8412 33.6917 29.9003 33.6917C29.9626 33.6917 29.9748 33.6503 29.9823 33.6272L30.2701 32.4737C30.3855 32.121 30.6283 31.8397 31.0445 31.7249L31.7022 31.5362C31.7931 31.5097 31.7917 31.4011 31.6994 31.3761Z" fill="#FDD835"/>
<path d="M27.9601 32.3911C27.5696 32.2837 27.534 32.1626 27.4683 31.9583L27.3047 31.4802C27.2949 31.4493 27.1983 31.4493 27.188 31.4802L27.0769 31.922C27.0108 32.1255 26.8702 32.2872 26.6302 32.3532L26.2477 32.4915C26.1947 32.506 26.1938 32.5685 26.2468 32.5833L26.6321 32.697C26.8712 32.763 27.0108 32.9247 27.0774 33.1274L27.1885 33.5501C27.1988 33.581 27.2949 33.581 27.3047 33.5501L27.4351 33.1294C27.5012 32.9255 27.6024 32.7634 27.9272 32.697L28.2891 32.5833C28.3421 32.5681 28.3416 32.5056 28.2882 32.4911L27.9601 32.3911Z" fill="#FDD835"/>
<path d="M28.8004 30.0991C28.8267 30.0917 28.8257 30.0604 28.799 30.0542L28.4371 29.9729C28.3999 29.9645 28.3659 29.9482 28.3385 29.9256C28.3111 29.903 28.2911 29.8749 28.2806 29.844L28.1381 29.3538C28.131 29.3299 28.0902 29.3299 28.0832 29.3542L27.9492 29.8424C27.939 29.8742 27.9189 29.9032 27.8909 29.9263C27.8629 29.9494 27.828 29.9659 27.7898 29.9741L27.4302 30.0518C27.4035 30.0577 27.4017 30.0889 27.4279 30.0967L27.8071 30.2061C27.8751 30.2256 27.9276 30.2717 27.9482 30.3292L28.0837 30.7819C28.0907 30.8053 28.131 30.8057 28.1381 30.7819L28.2782 30.3276C28.2886 30.2992 28.3069 30.2733 28.3317 30.2521C28.3565 30.2308 28.387 30.2148 28.4207 30.2053L28.8004 30.0991Z" fill="#F4B400"/>
</g>
<path d="M26.8438 10.1562L21.1562 15.8438M21.1562 10.1562L26.8438 15.8438" stroke="#20252D" stroke-width="1.5" stroke-linecap="round" stroke-linejoin="round"/>
</g>
<defs>
<clipPath id="clip0_758_1374">
<rect width="47" height="44" fill="white"/>
</clipPath>
<clipPath id="clip1_758_1374">
<rect width="6" height="5" fill="white" transform="translate(26 29)"/>
</clipPath>
</defs>
</svg>
