<svg width="188" height="168" viewBox="0 0 188 168" fill="none" xmlns="http://www.w3.org/2000/svg">
<path d="M182.9 158.781H114.32L180.924 100.649C188.544 94.159 189.391 82.3069 182.9 74.6877L138.309 23.611C135.204 19.9425 130.689 17.685 125.891 17.4028C121.093 17.1206 116.295 18.5316 112.626 21.9179L93.4354 38.5672L46.3043 78.9206L27.1131 95.5699C23.4443 98.674 20.9043 103.189 20.622 107.986C20.3398 112.784 21.7509 117.581 25.1376 121.249L57.3109 158.781H47.4331C45.1754 158.781 43.1998 160.756 43.1998 163.014C43.1998 165.271 45.1754 167.247 47.4331 167.247H182.9C185.158 167.247 187.133 165.271 187.133 163.014C187.133 160.756 185.158 158.781 182.9 158.781ZM115.449 130.844C111.78 133.948 106.7 133.384 103.595 129.997C100.491 126.329 101.055 121.249 104.442 118.145C108.111 115.041 113.191 115.606 116.295 118.992C119.4 122.66 119.118 128.022 115.449 130.844ZM129.278 103.189C127.02 107.422 121.94 109.115 117.989 106.858C113.755 104.882 112.062 99.8028 114.32 95.5699C116.295 91.337 121.375 89.6439 125.609 91.9014C129.56 93.8768 131.253 98.9562 129.278 103.189ZM102.184 67.9151C105.289 71.5836 104.724 76.6631 101.338 79.7672C97.6687 82.8713 92.5887 82.3069 89.4843 78.9206C86.3798 75.2521 86.9443 70.1727 90.3309 67.0686C93.7176 63.9644 99.0798 64.5288 102.184 67.9151ZM82.1465 97.2631C84.122 93.0302 89.202 91.3371 93.4354 93.5946C93.4354 93.5946 93.4354 93.5946 93.7176 93.5946C97.6687 95.8521 99.362 100.649 97.3865 104.882C95.4109 109.115 90.3309 110.808 86.0976 108.551C81.582 106.575 79.8887 101.496 82.1465 97.2631ZM117.989 28.1261C119.964 26.4329 122.504 25.5864 125.044 25.8685C127.584 26.1507 130.124 27.2795 131.818 29.2548L176.126 80.6138C177.82 82.5891 178.666 85.1288 178.666 87.6685C178.384 90.2083 177.255 92.748 175.28 94.4412L159.475 108.269L101.902 41.9535L117.989 28.1261ZM31.6287 115.888C29.9354 113.912 29.0887 111.373 29.0887 108.833C29.3709 106.293 30.4998 103.753 32.4754 102.06L48.562 88.2329L106.135 154.548L101.338 158.781H68.5998L31.6287 115.888Z" fill="white"/>
<path d="M20.6223 20.5068H27.6778C29.9356 20.5068 31.9111 18.5315 31.9111 16.274C31.9111 14.0164 29.9356 12.0411 27.6778 12.0411H20.6223V4.98629C20.6223 2.72876 18.6467 0.753418 16.3889 0.753418C14.1311 0.753418 12.1556 2.72876 12.1556 4.98629V12.0411H5.10003C2.84225 12.0411 0.866699 14.0164 0.866699 16.274C0.866699 18.5315 2.84225 20.5068 5.10003 20.5068H12.1556V27.5616C12.1556 29.8192 14.1311 31.7945 16.3889 31.7945C18.6467 31.7945 20.6223 29.8192 20.6223 27.5616V20.5068Z" fill="#1877F2"/>
<path d="M38.9667 37.4382H46.0223V44.493C46.0223 46.7506 47.9978 48.7259 50.2556 48.7259C52.5134 48.7259 54.489 46.7506 54.489 44.493V37.4382H61.5445C63.8023 37.4382 65.7778 35.4629 65.7778 33.2054C65.7778 30.9478 63.8023 28.9725 61.5445 28.9725H54.489V21.9177C54.489 19.6602 52.5134 17.6848 50.2556 17.6848C47.9978 17.6848 46.0223 19.6602 46.0223 21.9177V28.9725H38.9667C36.709 28.9725 34.7334 30.9478 34.7334 33.2054C34.7334 35.4629 36.709 37.4382 38.9667 37.4382Z" fill="#1877F2"/>
</svg>
