<svg width="41" height="50" viewBox="0 0 41 50" fill="none" xmlns="http://www.w3.org/2000/svg">
<path d="M9 28.5L13.5 25L16 24L20.5 28.5L18.5 34L13.5 37H6V35.5L9 28.5Z" fill="#1877F2" fill-opacity="0.45"/>
<path d="M36.9579 7.29138C35.6898 6.00754 33.631 5.92341 32.2668 7.1025L14.1705 22.7463C13.5444 22.823 12.9125 22.9868 12.285 23.2598C9.94965 24.2766 8.11494 26.4754 7.61139 28.8645C7.06247 31.4647 6.42623 33.5618 3.68918 34.8942C3.30918 35.0787 3.05729 35.458 3.03109 35.883C3.00488 36.308 3.20581 36.7167 3.55962 36.9484C5.8353 38.4433 8.14006 39.0764 10.3254 39.0764C14.0787 39.0764 17.4758 37.2081 19.7528 34.6273C20.8098 33.429 21.4373 31.9755 21.6164 30.5114L37.1442 12.0445C38.3061 10.6632 38.2246 8.57375 36.9579 7.29138ZM18.0159 33.0524C15.401 36.0156 10.9893 37.8366 6.50498 35.8813C8.93062 33.9128 9.49262 31.2388 9.88864 29.3586C10.2352 27.7206 11.5645 26.1416 13.2039 25.4305C14.0847 25.0454 15.4126 24.7605 16.7302 25.5766C17.6897 26.1728 18.7205 27.3223 19.0743 28.193C19.779 29.924 19.0511 31.8823 18.0159 33.0524ZM21.238 27.3223C21.235 27.312 21.2321 27.3016 21.2292 27.2913C20.5959 25.7359 19.0831 24.2661 17.9475 23.5607C17.7189 23.4191 17.4845 23.2981 17.2457 23.1918L20.1737 20.661C20.4416 20.7525 20.708 20.8647 20.973 21.027C22.03 21.6837 23.1831 22.9719 23.5879 23.943C23.6461 24.0876 23.6694 24.2381 23.7116 24.3842L21.238 27.3223ZM35.3725 10.5127L25.4036 22.37C24.6858 21.1053 23.4482 19.7934 22.183 19.0099C22.1626 18.9966 22.1393 18.9907 22.1189 18.9774L33.7782 8.89677C34.2237 8.5131 34.8978 8.53966 35.3113 8.95875C35.7248 9.37785 35.7511 10.0611 35.3725 10.5127Z" fill="#1877F2"/>
</svg>
