<svg width="24" height="24" viewBox="0 0 24 24" fill="none" xmlns="http://www.w3.org/2000/svg">
<path opacity="0.2" d="M23.1426 12C23.1426 13.3403 21.2334 14.3518 20.7126 15.6096C20.2112 16.8225 20.8648 18.8935 19.8791 19.8793C18.8934 20.865 16.8223 20.2114 15.6094 20.7128C14.3569 21.2335 13.3391 23.1428 11.9998 23.1428C10.6605 23.1428 9.64265 21.2335 8.39015 20.7128C7.17729 20.2114 5.10622 20.865 4.1205 19.8793C3.13479 18.8935 3.78836 16.8225 3.28693 15.6096C2.76622 14.3571 0.856934 13.3393 0.856934 12C0.856934 10.6607 2.76622 9.64283 3.28693 8.39033C3.78836 7.17854 3.13479 5.1064 4.1205 4.12069C5.10622 3.13497 7.17836 3.78855 8.39015 3.28712C9.648 2.7664 10.6605 0.857117 11.9998 0.857117C13.3391 0.857117 14.3569 2.7664 15.6094 3.28712C16.8223 3.78855 18.8934 3.13497 19.8791 4.12069C20.8648 5.1064 20.2112 7.17747 20.7126 8.39033C21.2334 9.64819 23.1426 10.6607 23.1426 12Z" fill="#1877F2"/>
<path d="M22.485 9.30214C22.0811 8.88 21.6632 8.445 21.5057 8.0625C21.36 7.71214 21.3514 7.13143 21.3429 6.56893C21.3268 5.52321 21.3096 4.33821 20.4857 3.51429C19.6618 2.69036 18.4768 2.67321 17.4311 2.65714C16.8686 2.64857 16.2879 2.64 15.9375 2.49429C15.5561 2.33679 15.12 1.91893 14.6979 1.515C13.9586 0.804643 13.1186 0 12 0C10.8814 0 10.0425 0.804643 9.30214 1.515C8.88 1.91893 8.445 2.33679 8.0625 2.49429C7.71429 2.64 7.13143 2.64857 6.56893 2.65714C5.52321 2.67321 4.33821 2.69036 3.51429 3.51429C2.69036 4.33821 2.67857 5.52321 2.65714 6.56893C2.64857 7.13143 2.64 7.71214 2.49429 8.0625C2.33679 8.44393 1.91893 8.88 1.515 9.30214C0.804643 10.0414 0 10.8814 0 12C0 13.1186 0.804643 13.9575 1.515 14.6979C1.91893 15.12 2.33679 15.555 2.49429 15.9375C2.64 16.2879 2.64857 16.8686 2.65714 17.4311C2.67321 18.4768 2.69036 19.6618 3.51429 20.4857C4.33821 21.3096 5.52321 21.3268 6.56893 21.3429C7.13143 21.3514 7.71214 21.36 8.0625 21.5057C8.44393 21.6632 8.88 22.0811 9.30214 22.485C10.0414 23.1954 10.8814 24 12 24C13.1186 24 13.9575 23.1954 14.6979 22.485C15.12 22.0811 15.555 21.6632 15.9375 21.5057C16.2879 21.36 16.8686 21.3514 17.4311 21.3429C18.4768 21.3268 19.6618 21.3096 20.4857 20.4857C21.3096 19.6618 21.3268 18.4768 21.3429 17.4311C21.3514 16.8686 21.36 16.2879 21.5057 15.9375C21.6632 15.5561 22.0811 15.12 22.485 14.6979C23.1954 13.9586 24 13.1186 24 12C24 10.8814 23.1954 10.0425 22.485 9.30214ZM21.2475 13.5118C20.7343 14.0475 20.2029 14.6014 19.9211 15.2818C19.6511 15.9354 19.6393 16.6821 19.6286 17.4054C19.6179 18.1554 19.6061 18.9407 19.2729 19.2729C18.9396 19.605 18.1596 19.6179 17.4054 19.6286C16.6821 19.6393 15.9354 19.6511 15.2818 19.9211C14.6014 20.2029 14.0475 20.7343 13.5118 21.2475C12.9761 21.7607 12.4286 22.2857 12 22.2857C11.5714 22.2857 11.0196 21.7586 10.4882 21.2475C9.95679 20.7364 9.39857 20.2029 8.71821 19.9211C8.06464 19.6511 7.31786 19.6393 6.59464 19.6286C5.84464 19.6179 5.05929 19.6061 4.72714 19.2729C4.395 18.9396 4.38214 18.1596 4.37143 17.4054C4.36071 16.6821 4.34893 15.9354 4.07893 15.2818C3.79714 14.6014 3.26571 14.0475 2.7525 13.5118C2.23929 12.9761 1.71429 12.4286 1.71429 12C1.71429 11.5714 2.24143 11.0196 2.7525 10.4882C3.26357 9.95679 3.79714 9.39857 4.07893 8.71821C4.34893 8.06464 4.36071 7.31786 4.37143 6.59464C4.38214 5.84464 4.39393 5.05929 4.72714 4.72714C5.06036 4.395 5.84036 4.38214 6.59464 4.37143C7.31786 4.36071 8.06464 4.34893 8.71821 4.07893C9.39857 3.79714 9.9525 3.26571 10.4882 2.7525C11.0239 2.23929 11.5714 1.71429 12 1.71429C12.4286 1.71429 12.9804 2.24143 13.5118 2.7525C14.0432 3.26357 14.6014 3.79714 15.2818 4.07893C15.9354 4.34893 16.6821 4.36071 17.4054 4.37143C18.1554 4.38214 18.9407 4.39393 19.2729 4.72714C19.605 5.06036 19.6179 5.84036 19.6286 6.59464C19.6393 7.31786 19.6511 8.06464 19.9211 8.71821C20.2029 9.39857 20.7343 9.9525 21.2475 10.4882C21.7607 11.0239 22.2857 11.5714 22.2857 12C22.2857 12.4286 21.7586 12.9804 21.2475 13.5118ZM16.8921 8.82214C16.9718 8.90175 17.0351 8.99628 17.0782 9.10034C17.1213 9.20439 17.1435 9.31593 17.1435 9.42857C17.1435 9.54121 17.1213 9.65275 17.0782 9.75681C17.0351 9.86086 16.9718 9.95539 16.8921 10.035L10.8921 16.035C10.8125 16.1147 10.718 16.1779 10.6139 16.2211C10.5099 16.2642 10.3984 16.2864 10.2857 16.2864C10.1731 16.2864 10.0615 16.2642 9.95748 16.2211C9.85342 16.1779 9.75889 16.1147 9.67929 16.035L7.10786 13.4636C6.94702 13.3027 6.85667 13.0846 6.85667 12.8571C6.85667 12.6297 6.94702 12.4115 7.10786 12.2507C7.26869 12.0899 7.48683 11.9995 7.71429 11.9995C7.94174 11.9995 8.15988 12.0899 8.32071 12.2507L10.2857 14.2168L15.6793 8.82214C15.7589 8.74245 15.8534 8.67923 15.9575 8.63609C16.0615 8.59296 16.1731 8.57075 16.2857 8.57075C16.3984 8.57075 16.5099 8.59296 16.6139 8.63609C16.718 8.67923 16.8125 8.74245 16.8921 8.82214Z" fill="#1877F2"/>
</svg>
