<svg width="82" height="82" viewBox="0 0 82 82" fill="none" xmlns="http://www.w3.org/2000/svg">
<path fill-rule="evenodd" clip-rule="evenodd" d="M65.3123 17.8125V49.4792C65.3123 58.2237 58.2235 65.3125 49.479 65.3125H17.8123C9.06783 65.3125 1.979 58.2237 1.979 49.4792V17.8125C1.979 9.06798 9.06783 1.97916 17.8123 1.97916H49.479C58.2235 1.97916 65.3123 9.06798 65.3123 17.8125ZM7.9165 17.8125V49.4792C7.9165 52.1037 8.9591 54.6207 10.8149 56.4766C12.6708 58.3324 15.1878 59.375 17.8123 59.375H49.479C54.9443 59.375 59.3748 54.9445 59.3748 49.4792V17.8125C59.3748 12.3472 54.9443 7.91666 49.479 7.91666H17.8123C12.347 7.91666 7.9165 12.3472 7.9165 17.8125Z" fill="#1877F2"/>
<path d="M77.1873 26.7187C75.5567 26.7401 74.2399 28.0568 74.2186 29.6875V61.3542C74.1969 68.4501 68.4499 74.197 61.354 74.2187H29.6873C28.0477 74.2187 26.7186 75.5479 26.7186 77.1875C26.7186 78.8271 28.0477 80.1562 29.6873 80.1562H61.354C71.7381 80.1562 80.1561 71.7383 80.1561 61.3542V29.6875C80.1348 28.0568 78.818 26.7401 77.1873 26.7187Z" fill="#1877F2"/>
<path fill-rule="evenodd" clip-rule="evenodd" d="M65.3123 17.8125V49.4792C65.3123 58.2237 58.2235 65.3125 49.479 65.3125H17.8123C9.06783 65.3125 1.979 58.2237 1.979 49.4792V17.8125C1.979 9.06798 9.06783 1.97916 17.8123 1.97916H49.479C58.2235 1.97916 65.3123 9.06798 65.3123 17.8125ZM7.9165 17.8125V49.4792C7.9165 52.1037 8.9591 54.6207 10.8149 56.4766C12.6708 58.3324 15.1878 59.375 17.8123 59.375H49.479C54.9443 59.375 59.3748 54.9445 59.3748 49.4792V17.8125C59.3748 12.3472 54.9443 7.91666 49.479 7.91666H17.8123C12.347 7.91666 7.9165 12.3472 7.9165 17.8125Z" stroke="#1877F2" stroke-width="3"/>
<path d="M77.1873 26.7187C75.5567 26.7401 74.2399 28.0568 74.2186 29.6875V61.3542C74.1969 68.4501 68.4499 74.197 61.354 74.2187H29.6873C28.0477 74.2187 26.7186 75.5479 26.7186 77.1875C26.7186 78.8271 28.0477 80.1562 29.6873 80.1562H61.354C71.7381 80.1562 80.1561 71.7383 80.1561 61.3542V29.6875C80.1348 28.0568 78.818 26.7401 77.1873 26.7187Z" stroke="#1877F2" stroke-width="3"/>
</svg>
