<svg width="32" height="32" viewBox="0 0 32 32" fill="none" xmlns="http://www.w3.org/2000/svg">
<path d="M7.76513 4.84266L15.9998 13.0773L24.1918 4.88533C24.3727 4.69273 24.5907 4.53865 24.8327 4.43234C25.0746 4.32603 25.3355 4.26968 25.5998 4.26666C26.1656 4.26666 26.7082 4.49142 27.1083 4.8915C27.5084 5.29158 27.7331 5.8342 27.7331 6.4C27.7381 6.66155 27.6896 6.92136 27.5905 7.16348C27.4915 7.4056 27.344 7.62492 27.1571 7.808L18.8585 16L27.1571 24.2987C27.5087 24.6426 27.7149 25.1085 27.7331 25.6C27.7331 26.1658 27.5084 26.7084 27.1083 27.1085C26.7082 27.5086 26.1656 27.7333 25.5998 27.7333C25.3279 27.7446 25.0567 27.6992 24.8032 27.6001C24.5498 27.5009 24.3198 27.3501 24.1278 27.1573L15.9998 18.9227L7.78646 27.136C7.60621 27.3222 7.39086 27.4708 7.15286 27.5733C6.91486 27.6759 6.65892 27.7302 6.39979 27.7333C5.834 27.7333 5.29138 27.5086 4.8913 27.1085C4.49122 26.7084 4.26646 26.1658 4.26646 25.6C4.26149 25.3384 4.31001 25.0786 4.40906 24.8365C4.50811 24.5944 4.6556 24.3751 4.84246 24.192L13.1411 16L4.84246 7.70133C4.49085 7.35735 4.28468 6.89154 4.26646 6.4C4.26646 5.8342 4.49122 5.29158 4.8913 4.8915C5.29138 4.49142 5.834 4.26666 6.39979 4.26666C6.91179 4.27306 7.40246 4.48 7.76513 4.84266Z" fill="white"/>
</svg>
