<svg width="35" height="38" viewBox="0 0 35 38" fill="none" xmlns="http://www.w3.org/2000/svg">
<path d="M13.4306 34.8776C13.3312 34.8776 13.2317 34.8478 13.1472 34.7831C12.9334 34.6238 12.8837 34.3252 13.0428 34.1062L28.5739 12.905C29.3544 11.8399 29.1407 10.317 28.0966 9.51085L23.3637 5.85299C22.2997 5.03181 20.7586 5.22589 19.9334 6.29095L4.11368 26.6414C3.33315 27.6467 3.44251 29.0652 4.3722 29.9362L8.7472 34.0422C8.9411 34.2263 8.95104 34.5299 8.76709 34.724C8.58314 34.9181 8.27989 34.9281 8.08599 34.7439L3.71099 30.6379C2.41341 29.4235 2.25928 27.4476 3.35303 26.0442L19.1676 5.70395C20.321 4.22086 22.4637 3.9521 23.9502 5.09679L28.6832 8.75466C30.1647 9.89935 30.458 11.9746 29.3494 13.4827L13.8183 34.684C13.7238 34.8134 13.5797 34.8781 13.4305 34.8781L13.4306 34.8776Z" fill="black"/>
<rect x="14.707" y="12.446" width="11.8124" height="2.10425" transform="rotate(38.1235 14.707 12.446)" fill="black" fill-opacity="0.57"/>
<path d="M24.2487 20.1165C24.1443 20.1165 24.0399 20.0817 23.9504 20.012L14.4944 12.4969C14.2856 12.3326 14.2508 12.029 14.4149 11.82C14.5789 11.611 14.8822 11.5762 15.091 11.7404L24.547 19.2555C24.7558 19.4198 24.7906 19.7234 24.6266 19.9324C24.5321 20.0518 24.3879 20.1165 24.2487 20.1165Z" fill="black"/>
<path d="M22.6977 22.2315C22.5884 22.2315 22.479 22.1967 22.3895 22.117L13.0728 14.2984C12.869 14.1292 12.8441 13.8206 13.0132 13.6166C13.1822 13.4125 13.4855 13.3826 13.6943 13.5568L23.0062 21.3755C23.21 21.5447 23.2349 21.8533 23.0658 22.0573C22.9714 22.1718 22.8369 22.2315 22.6977 22.2315Z" fill="black"/>
<path d="M17.8154 34.8776C17.7159 34.8776 17.6115 34.8478 17.527 34.7831C17.3132 34.6238 17.2735 34.3202 17.4326 34.1062L31.5719 15.2738C32.2182 14.4128 32.089 13.1885 31.2786 12.4818L28.8028 10.3219C28.6039 10.1477 28.579 9.84409 28.758 9.64004C28.932 9.44097 29.2353 9.41609 29.4391 9.59525L31.915 11.7552C33.1032 12.7904 33.2921 14.592 32.3475 15.851L18.2034 34.6885C18.1039 34.8129 17.9596 34.8776 17.8154 34.8776Z" fill="black"/>
<path d="M7.3618 34.7236C7.19558 34.3912 7.43733 34 7.80902 34H18.191C18.5627 34 18.8044 34.3912 18.6382 34.7236C18.5535 34.893 18.3804 35 18.191 35H7.80902C7.61963 35 7.4465 34.893 7.3618 34.7236Z" fill="black"/>
<g clip-path="url(#clip0_761_1570)">
<path d="M5.6665 9.00008C7.2915 9.00008 7.99984 8.31641 7.99984 6.66675C7.99984 8.31641 8.70317 9.00008 10.3332 9.00008C8.70317 9.00008 7.99984 9.70341 7.99984 11.3334C7.99984 9.70341 7.2915 9.00008 5.6665 9.00008ZM3.6665 6.16675C4.71117 6.16675 5.1665 5.72741 5.1665 4.66675C5.1665 5.72741 5.61884 6.16675 6.6665 6.16675C5.61884 6.16675 5.1665 6.61908 5.1665 7.66675C5.1665 6.61908 4.71117 6.16675 3.6665 6.16675Z" fill="black" stroke="black" stroke-width="0.5" stroke-linejoin="round"/>
</g>
<defs>
<clipPath id="clip0_761_1570">
<rect width="8" height="8" fill="white" transform="translate(3 4)"/>
</clipPath>
</defs>
</svg>
