<svg width="50" height="51" viewBox="0 0 50 51" fill="none" xmlns="http://www.w3.org/2000/svg">
<g clip-path="url(#clip0_761_2321)">
<path d="M38.2812 0.390625H11.7188C5.24666 0.390625 0 5.63729 0 12.1094V38.6719C0 45.144 5.24666 50.3906 11.7188 50.3906H38.2812C44.7533 50.3906 50 45.144 50 38.6719V12.1094C50 5.63729 44.7533 0.390625 38.2812 0.390625Z" fill="url(#paint0_radial_761_2321)"/>
<path d="M38.2812 0.390625H11.7188C5.24666 0.390625 0 5.63729 0 12.1094V38.6719C0 45.144 5.24666 50.3906 11.7188 50.3906H38.2812C44.7533 50.3906 50 45.144 50 38.6719V12.1094C50 5.63729 44.7533 0.390625 38.2812 0.390625Z" fill="url(#paint1_radial_761_2321)"/>
<path d="M25.0018 5.85938C19.6975 5.85938 19.0316 5.88262 16.9484 5.97734C14.8691 6.07266 13.4498 6.40176 12.208 6.88477C10.9232 7.38359 9.83359 8.05098 8.74805 9.13691C7.66152 10.2227 6.99414 11.3123 6.49375 12.5965C6.00938 13.8387 5.67988 15.2586 5.58633 17.3369C5.49316 19.4203 5.46875 20.0863 5.46875 25.3908C5.46875 30.6953 5.49219 31.359 5.58672 33.4422C5.68242 35.5215 6.01152 36.9408 6.49414 38.1826C6.99336 39.4674 7.66074 40.557 8.74668 41.6426C9.83203 42.7291 10.9217 43.398 12.2055 43.8969C13.4482 44.3799 14.8678 44.709 16.9467 44.8043C19.0301 44.899 19.6953 44.9223 24.9994 44.9223C30.3043 44.9223 30.968 44.899 33.0512 44.8043C35.1305 44.709 36.5514 44.3799 37.7941 43.8969C39.0783 43.398 40.1664 42.7291 41.2516 41.6426C42.3381 40.557 43.0053 39.4674 43.5059 38.1832C43.9859 36.9408 44.3156 35.5211 44.4133 33.4426C44.5068 31.3594 44.5312 30.6953 44.5312 25.3908C44.5312 20.0863 44.5068 19.4207 44.4133 17.3373C44.3156 15.258 43.9859 13.8389 43.5059 12.5971C43.0053 11.3123 42.3381 10.2227 41.2516 9.13691C40.1652 8.05059 39.0787 7.3832 37.793 6.88496C36.5479 6.40176 35.1277 6.07246 33.0484 5.97734C30.965 5.88262 30.3018 5.85938 24.9957 5.85938H25.0018ZM23.2496 9.3791C23.7697 9.37832 24.35 9.3791 25.0018 9.3791C30.2168 9.3791 30.8348 9.39785 32.8941 9.49141C34.7984 9.57852 35.832 9.89668 36.5205 10.1641C37.432 10.518 38.0818 10.9412 38.765 11.625C39.4486 12.3086 39.8717 12.9596 40.2266 13.8711C40.4939 14.5586 40.8125 15.5922 40.8992 17.4965C40.9928 19.5555 41.0131 20.1738 41.0131 25.3863C41.0131 30.5988 40.9928 31.2174 40.8992 33.2762C40.8121 35.1805 40.4939 36.2141 40.2266 36.9018C39.8727 37.8133 39.4486 38.4623 38.765 39.1455C38.0814 39.8291 37.4324 40.2522 36.5205 40.6063C35.8328 40.8748 34.7984 41.1922 32.8941 41.2793C30.8352 41.3729 30.2168 41.3932 25.0018 41.3932C19.7865 41.3932 19.1684 41.3729 17.1096 41.2793C15.2053 41.1914 14.1717 40.8732 13.4826 40.6059C12.5713 40.2518 11.9201 39.8287 11.2365 39.1451C10.5529 38.4615 10.1299 37.8121 9.775 36.9002C9.50762 36.2125 9.18906 35.1789 9.10234 33.2746C9.00879 31.2156 8.99004 30.5973 8.99004 25.3814C8.99004 20.1656 9.00879 19.5506 9.10234 17.4916C9.18945 15.5873 9.50762 14.5537 9.775 13.8652C10.1291 12.9537 10.5529 12.3027 11.2367 11.6191C11.9205 10.9355 12.5713 10.5123 13.4828 10.1576C14.1713 9.88906 15.2053 9.57168 17.1096 9.48418C18.9113 9.40273 19.6096 9.37832 23.2496 9.37422V9.3791ZM35.4275 12.6221C34.1336 12.6221 33.0838 13.6709 33.0838 14.965C33.0838 16.259 34.1336 17.3088 35.4275 17.3088C36.7215 17.3088 37.7713 16.259 37.7713 14.965C37.7713 13.6711 36.7215 12.6213 35.4275 12.6213V12.6221ZM25.0018 15.3605C19.4627 15.3605 14.9717 19.8516 14.9717 25.3908C14.9717 30.9301 19.4627 35.4189 25.0018 35.4189C30.541 35.4189 35.0305 30.9301 35.0305 25.3908C35.0305 19.8518 30.5406 15.3605 25.0014 15.3605H25.0018ZM25.0018 18.8803C28.5973 18.8803 31.5123 21.7949 31.5123 25.3908C31.5123 28.9863 28.5973 31.9014 25.0018 31.9014C21.4062 31.9014 18.4914 28.9863 18.4914 25.3908C18.4914 21.7949 21.4061 18.8803 25.0018 18.8803Z" fill="white"/>
</g>
<defs>
<radialGradient id="paint0_radial_761_2321" cx="0" cy="0" r="1" gradientUnits="userSpaceOnUse" gradientTransform="translate(13.2812 54.2416) rotate(-90) scale(49.5537 46.0889)">
<stop stop-color="#FFDD55"/>
<stop offset="0.1" stop-color="#FFDD55"/>
<stop offset="0.5" stop-color="#FF543E"/>
<stop offset="1" stop-color="#C837AB"/>
</radialGradient>
<radialGradient id="paint1_radial_761_2321" cx="0" cy="0" r="1" gradientUnits="userSpaceOnUse" gradientTransform="translate(-8.3752 3.99238) rotate(78.681) scale(22.1508 91.3062)">
<stop stop-color="#3771C8"/>
<stop offset="0.128" stop-color="#3771C8"/>
<stop offset="1" stop-color="#6600FF" stop-opacity="0"/>
</radialGradient>
<clipPath id="clip0_761_2321">
<rect width="50" height="50" fill="white" transform="translate(0 0.390625)"/>
</clipPath>
</defs>
</svg>
