<svg width="24" height="24" viewBox="0 0 24 24" fill="none" xmlns="http://www.w3.org/2000/svg">
<path d="M10.1053 5.05273H9.12283C5.41799 5.05273 3.56508 5.05273 2.41462 5.95744C1.26417 6.86214 1.26318 8.31723 1.26318 11.2282V12.772C1.26318 15.683 1.26318 17.1388 2.41462 18.0428C3.56606 18.9467 5.41799 18.9475 9.12283 18.9475H10.1053" fill="white"/>
<path d="M10.1053 5.05273H9.12283C5.41799 5.05273 3.56508 5.05273 2.41462 5.95744C1.26417 6.86214 1.26318 8.31723 1.26318 11.2282V12.772C1.26318 15.683 1.26318 17.1388 2.41462 18.0428C3.56606 18.9467 5.41799 18.9475 9.12283 18.9475H10.1053" stroke="white" stroke-width="1.5"/>
<path d="M15.1577 5.05273H18.1893C20.3326 5.05273 21.405 5.05273 22.0705 5.73126C22.7367 6.40902 22.7367 7.5013 22.7367 9.68431V14.3159C22.7367 16.4989 22.7367 17.5912 22.0705 18.2689C21.405 18.9475 20.3326 18.9475 18.1893 18.9475H15.1577" stroke="white" stroke-width="1.5"/>
<path d="M12.6318 2.52637V22.5264" stroke="white" stroke-width="1.5" stroke-linecap="round"/>
</svg>
