<svg width="20" height="16" viewBox="0 0 20 16" fill="none" xmlns="http://www.w3.org/2000/svg">
<path d="M7.17759 0.725772C7.33828 0.893207 7.42855 1.12027 7.42855 1.35702C7.42855 1.59378 7.33828 1.82084 7.17759 1.98827L3.49788 5.82131H10.8573C15.5913 5.82131 19.4287 9.81863 19.4287 14.7499C19.4287 14.9867 19.3384 15.2138 19.1777 15.3812C19.0169 15.5487 18.7989 15.6427 18.5716 15.6427C18.3443 15.6427 18.1262 15.5487 17.9655 15.3812C17.8048 15.2138 17.7145 14.9867 17.7145 14.7499C17.7145 12.8555 16.992 11.0387 15.706 9.69911C14.4201 8.35957 12.6759 7.60702 10.8573 7.60702H3.49788L7.17759 11.4401C7.33373 11.6085 7.42012 11.834 7.41817 12.0681C7.41622 12.3022 7.32607 12.5261 7.16715 12.6917C7.00823 12.8572 6.79325 12.9511 6.56851 12.9532C6.34377 12.9552 6.12725 12.8652 5.96559 12.7026L0.822737 7.34541C0.662048 7.17798 0.571777 6.95092 0.571777 6.71416C0.571777 6.47741 0.662048 6.25035 0.822737 6.08291L5.96559 0.725772C6.12633 0.558387 6.34431 0.464355 6.57159 0.464355C6.79888 0.464355 7.01686 0.558387 7.17759 0.725772Z" fill="#929192"/>
</svg>
