<svg width="20" height="16" viewBox="0 0 20 16" fill="none" xmlns="http://www.w3.org/2000/svg">
<path d="M12.8224 0.725772C12.6617 0.893207 12.5714 1.12027 12.5714 1.35702C12.5714 1.59378 12.6617 1.82084 12.8224 1.98827L16.5021 5.82131H9.14269C4.40869 5.82131 0.571264 9.81863 0.571264 14.7499C0.571264 14.9867 0.66157 15.2138 0.822315 15.3812C0.983061 15.5487 1.20108 15.6427 1.42841 15.6427C1.65574 15.6427 1.87375 15.5487 2.0345 15.3812C2.19524 15.2138 2.28555 14.9867 2.28555 14.7499C2.28555 12.8555 3.008 11.0387 4.29396 9.69911C5.57992 8.35957 7.32407 7.60702 9.14269 7.60702H16.5021L12.8224 11.4401C12.6663 11.6085 12.5799 11.834 12.5818 12.0681C12.5838 12.3022 12.6739 12.5261 12.8328 12.6917C12.9918 12.8572 13.2068 12.9511 13.4315 12.9532C13.6562 12.9552 13.8727 12.8652 14.0344 12.7026L19.1773 7.34541C19.338 7.17798 19.4282 6.95092 19.4282 6.71416C19.4282 6.47741 19.338 6.25035 19.1773 6.08291L14.0344 0.725772C13.8737 0.558387 13.6557 0.464355 13.4284 0.464355C13.2011 0.464355 12.9831 0.558387 12.8224 0.725772Z" fill="#929192"/>
</svg>
