<svg width="50" height="51" viewBox="0 0 50 51" fill="none" xmlns="http://www.w3.org/2000/svg">
<path d="M37.5 33.8907C35.9167 33.8907 34.5 34.5157 33.4167 35.4949L18.5625 26.849C18.6667 26.3699 18.75 25.8907 18.75 25.3907C18.75 24.8907 18.6667 24.4115 18.5625 23.9324L33.25 15.3699C34.375 16.4115 35.8542 17.0574 37.5 17.0574C40.9583 17.0574 43.75 14.2657 43.75 10.8074C43.75 7.34904 40.9583 4.55737 37.5 4.55737C34.0417 4.55737 31.25 7.34904 31.25 10.8074C31.25 11.3074 31.3333 11.7865 31.4375 12.2657L16.75 20.8282C15.625 19.7865 14.1458 19.1407 12.5 19.1407C9.04167 19.1407 6.25 21.9324 6.25 25.3907C6.25 28.849 9.04167 31.6407 12.5 31.6407C14.1458 31.6407 15.625 30.9949 16.75 29.9532L31.5833 38.6199C31.4792 39.0574 31.4167 39.5157 31.4167 39.974C31.4167 43.3282 34.1458 46.0574 37.5 46.0574C40.8542 46.0574 43.5833 43.3282 43.5833 39.974C43.5833 36.6199 40.8542 33.8907 37.5 33.8907Z" fill="#4CD964"/>
</svg>
