<svg width="34" height="27" viewBox="0 0 34 27" fill="none" xmlns="http://www.w3.org/2000/svg">
<path d="M32.2974 12.8313L28.5972 11.8842C26.2305 11.2641 24.8439 9.74321 24.1931 7.83212L22.5649 1.53353C22.5224 1.40907 22.4188 1.24243 22.1 1.24243C21.8317 1.24243 21.6777 1.40907 21.6352 1.53353L20.0069 7.83423C19.3534 9.74532 17.9695 11.2662 15.6028 11.8863L11.9027 12.8334C11.3794 12.9684 11.3714 13.5549 11.892 13.6962L15.6188 14.715C17.9775 15.3373 19.3534 16.856 20.0069 18.7587L21.6378 24.9877C21.6803 25.1121 21.768 25.3357 22.1027 25.3357C22.4559 25.3357 22.525 25.1121 22.5675 24.9877L24.1984 18.7587C24.8519 16.8539 26.2278 15.3352 28.5866 14.715L32.3133 13.6962C32.8286 13.5527 32.8206 12.9663 32.2974 12.8313Z" fill="#FDD835"/>
<path d="M32.6477 13.0949C32.5893 12.9789 32.4751 12.8777 32.2971 12.8313L28.597 11.8841C26.2302 11.264 24.8437 9.74312 24.1929 7.83203L22.5646 1.53344C22.5407 1.46172 22.4557 1.33094 22.3574 1.29297L22.8834 7.61477C23.2738 10.5004 23.6085 11.8588 26.5091 12.2554C29.0007 12.5971 31.8827 12.9895 32.6477 13.0949Z" fill="#FFEE58"/>
<path d="M32.6558 13.4241L26.2383 14.5927C23.9779 15.0483 22.7321 16.0882 22.7321 18.8093L22.1025 25.3357C22.3177 25.3188 22.493 25.226 22.5674 24.9877L24.1983 18.7587C24.8518 16.8539 26.2277 15.3352 28.5864 14.715L32.3132 13.6962C32.4885 13.6456 32.6 13.5422 32.6558 13.4241Z" fill="#F4B400"/>
<path d="M11.1059 18.3114C8.89322 17.7313 8.69135 17.0774 8.31947 15.9742L7.39244 13.3923C7.33666 13.2257 6.78947 13.2257 6.73103 13.3923L6.1015 15.778C5.72697 16.877 4.9301 17.7503 3.5701 18.1068L1.4026 18.8535C1.10244 18.9315 1.09713 19.269 1.39728 19.3492L3.58072 19.963C4.93541 20.3195 5.72697 21.1928 6.10416 22.2875L6.73369 24.5699C6.79213 24.7365 7.33666 24.7365 7.39244 24.5699L8.13088 22.2981C8.50541 21.197 9.07916 20.3216 10.9199 19.963L12.9706 19.3492C13.2707 19.2669 13.2681 18.9294 12.9653 18.8514L11.1059 18.3114Z" fill="#FDD835"/>
<path d="M7.5675 15.9363C7.79328 17.5943 7.9075 18.0542 9.59953 18.398L13.1244 18.9443C13.0872 18.9042 13.0341 18.8705 12.9623 18.8536L11.103 18.3115C9.16125 17.7842 8.62469 17.1134 8.26078 15.7718C7.89687 14.4303 7.50906 13.5549 7.50906 13.5549C7.37359 13.2659 7.17969 13.2806 7.17969 13.2806L7.5675 15.9363Z" fill="#FFEE58"/>
<path d="M7.6316 21.7245C7.6316 20.1614 8.70738 19.3873 10.418 19.3873L13.0796 19.3008C13.0796 19.3008 12.9255 19.4632 12.6572 19.5138L10.92 19.9631C9.44582 20.4335 8.77379 20.6698 8.31691 22.2708C8.31691 22.2708 7.72723 24.1334 7.61566 24.3295C7.4616 24.6037 7.27832 24.6607 7.27832 24.6607L7.6316 21.7245Z" fill="#F4B400"/>
<path d="M15.8685 5.93587C16.0172 5.89579 16.0119 5.72704 15.8605 5.69329L13.8099 5.25454C13.5989 5.20912 13.4064 5.12116 13.251 4.99918C13.0955 4.87721 12.9824 4.72538 12.9227 4.55845L12.1152 1.91118C12.0753 1.78251 11.8442 1.78251 11.8044 1.91329L11.0447 4.55001C10.9874 4.72158 10.8735 4.87791 10.7148 5.00287C10.556 5.12783 10.3581 5.21689 10.1416 5.26087L8.10424 5.68064C7.95283 5.71228 7.94221 5.88103 8.09096 5.92321L10.2399 6.51384C10.625 6.61931 10.9225 6.86821 11.0394 7.17829L11.8071 9.62306C11.8469 9.74962 12.0753 9.75173 12.1152 9.62306L12.9094 7.16986C12.9682 7.01673 13.0721 6.87695 13.2125 6.76212C13.353 6.64729 13.5259 6.56073 13.7169 6.50962L15.8685 5.93587Z" fill="#F4B400" stroke="#F4B400" stroke-miterlimit="10"/>
</svg>
