<svg width="33" height="33" viewBox="0 0 33 33" fill="none" xmlns="http://www.w3.org/2000/svg">
<path d="M16.4593 32.6688C15.5114 32.6688 14.5705 32.5945 13.6367 32.4461C12.7028 32.2977 11.802 32.0469 10.9343 31.6938C10.6093 31.5854 10.3455 31.3958 10.1429 31.125C9.94032 30.8542 9.83848 30.5292 9.8374 30.15C9.8374 29.6896 9.9934 29.3039 10.3054 28.993C10.6174 28.6821 11.0031 28.5261 11.4624 28.525L12.0312 28.6063C12.7624 28.85 13.4872 29.0466 14.2054 29.1961C14.9237 29.3456 15.6749 29.4198 16.4593 29.4188C16.9197 29.4188 17.3059 29.5748 17.6179 29.8868C17.9299 30.1988 18.0854 30.5844 18.0843 31.0438C18.0832 31.5031 17.9277 31.8893 17.6179 32.2024C17.3081 32.5155 16.9219 32.6709 16.4593 32.6688ZM22.9593 31.0438C22.4989 31.0438 22.1132 30.8883 21.8023 30.5774C21.4914 30.2665 21.3354 29.8803 21.3343 29.4188V22.9187C21.3343 22.4583 21.4903 22.0727 21.8023 21.7617C22.1143 21.4508 22.4999 21.2948 22.9593 21.2937H29.4593C29.9197 21.2937 30.3059 21.4497 30.6179 21.7617C30.9299 22.0737 31.0854 22.4594 31.0843 22.9187C31.0832 23.3781 30.9272 23.7643 30.6163 24.0774C30.3054 24.3905 29.9197 24.5459 29.4593 24.5438H26.8593L30.2718 27.9562C30.5697 28.2542 30.7257 28.6268 30.7398 29.0743C30.7539 29.5217 30.5979 29.9073 30.2718 30.2313C29.9739 30.5292 29.5947 30.6781 29.1343 30.6781C28.6739 30.6781 28.2947 30.5292 27.9968 30.2313L24.5843 26.8188V29.4188C24.5843 29.8792 24.4283 30.2654 24.1163 30.5774C23.8043 30.8894 23.4186 31.0448 22.9593 31.0438ZM6.14053 28.3625C5.92386 28.3625 5.71423 28.3154 5.51165 28.2211C5.30907 28.1269 5.13953 28.0115 5.00303 27.875C4.10928 27.0083 3.3374 26.0604 2.6874 25.0312C2.0374 24.0021 1.50928 22.9052 1.10303 21.7406C1.04886 21.6323 1.02178 21.4427 1.02178 21.1719C1.02178 20.7115 1.17778 20.3258 1.48978 20.0149C1.80178 19.704 2.18744 19.548 2.64678 19.5469C3.02594 19.5469 3.35094 19.6552 3.62178 19.8719C3.89261 20.0885 4.08219 20.3594 4.19053 20.6844C4.51553 21.6323 4.93532 22.5125 5.4499 23.325C5.96448 24.1375 6.57386 24.8958 7.27803 25.6C7.41344 25.7354 7.52882 25.9044 7.62415 26.107C7.71949 26.3096 7.76661 26.5197 7.76553 26.7375C7.76553 27.1979 7.60953 27.5841 7.29753 27.8961C6.98553 28.2081 6.59986 28.3636 6.14053 28.3625ZM31.0843 18.0437C30.6239 18.0437 30.2382 17.8877 29.9273 17.5758C29.6164 17.2638 29.4604 16.8781 29.4593 16.4187C29.4593 15.6333 29.3851 14.882 29.2367 14.1649C29.0882 13.4477 28.8916 12.723 28.6468 11.9906C28.5926 11.8823 28.5655 11.6927 28.5655 11.4219C28.5655 10.9615 28.7215 10.5758 29.0335 10.2649C29.3455 9.95396 29.7312 9.79796 30.1905 9.79688C30.5697 9.79688 30.8947 9.89871 31.1655 10.1024C31.4364 10.306 31.6259 10.5698 31.7343 10.8938C32.0864 11.7604 32.3372 12.6612 32.4866 13.5961C32.6362 14.531 32.7104 15.4719 32.7093 16.4187C32.7093 16.8792 32.5533 17.2654 32.2413 17.5774C31.9293 17.8894 31.5436 18.0448 31.0843 18.0437ZM1.91553 16.5C1.45511 16.5 1.06944 16.3445 0.758527 16.0336C0.44761 15.7227 0.291611 15.3365 0.290527 14.875V14.5906C0.453027 13.3719 0.737402 12.1802 1.14365 11.0156C1.5499 9.85104 2.07803 8.75417 2.72803 7.725C2.86344 7.50833 3.05303 7.32579 3.29678 7.17737C3.54053 7.02896 3.81136 6.95421 4.10928 6.95312C4.56969 6.95312 4.9559 7.10858 5.2679 7.4195C5.5799 7.73042 5.73536 8.11662 5.73428 8.57812C5.73428 8.74063 5.70719 8.90313 5.65303 9.06563C5.59886 9.22813 5.53115 9.37708 5.4499 9.5125C4.90824 10.3521 4.48844 11.2393 4.19053 12.1743C3.89261 13.1092 3.67594 14.0636 3.54053 15.0375C3.48636 15.4438 3.31032 15.7893 3.0124 16.0743C2.71449 16.3592 2.34886 16.5011 1.91553 16.5ZM26.778 7.725C26.5614 7.725 26.3517 7.67733 26.1492 7.582C25.9466 7.48667 25.777 7.37183 25.6405 7.2375C24.9364 6.53333 24.178 5.92396 23.3655 5.40938C22.553 4.89479 21.6728 4.475 20.7249 4.15C20.3999 4.04167 20.1291 3.85208 19.9124 3.58125C19.6957 3.31042 19.5874 2.98542 19.5874 2.60625C19.5874 2.14583 19.7434 1.76017 20.0554 1.44925C20.3674 1.13833 20.7531 0.982333 21.2124 0.98125L21.7812 1.0625C22.9457 1.46875 24.0426 1.99687 25.0718 2.64687C26.1009 3.29687 27.0489 4.06875 27.9155 4.9625C28.0509 5.09792 28.1663 5.26746 28.2617 5.47112C28.357 5.67479 28.4041 5.88442 28.403 6.1C28.403 6.56042 28.2476 6.94663 27.9367 7.25863C27.6257 7.57063 27.2395 7.72608 26.778 7.725ZM8.61865 5.69375C8.15824 5.69375 7.77203 5.53829 7.46003 5.22738C7.14803 4.91646 6.99257 4.53025 6.99365 4.06875C6.99365 3.77083 7.0684 3.5 7.2179 3.25625C7.3674 3.0125 7.54994 2.82292 7.76553 2.6875C8.79469 2.0375 9.89157 1.50938 11.0562 1.10313C12.2207 0.696875 13.4124 0.4125 14.6312 0.25H14.9155C15.3759 0.25 15.7621 0.406 16.0742 0.718C16.3862 1.03 16.5416 1.41567 16.5405 1.875C16.5405 2.30833 16.3986 2.67396 16.1148 2.97187C15.8309 3.26979 15.4854 3.44583 15.078 3.5C14.103 3.63542 13.1481 3.85208 12.2132 4.15C11.2782 4.44792 10.3915 4.86771 9.55303 5.40938C9.41761 5.49063 9.26865 5.55833 9.10615 5.6125C8.94365 5.66667 8.78115 5.69375 8.61865 5.69375Z" fill="white"/>
</svg>
