<svg width="105" height="46" viewBox="0 0 105 46" fill="none" xmlns="http://www.w3.org/2000/svg">
<rect y="0.633789" width="105" height="45.1186" rx="5" fill="black" fill-opacity="0.29"/>
<path d="M11.3139 19.6338H8.67756L12.6946 7.99743H15.8651L19.8764 19.6338H17.2401L14.3253 10.6565H14.2344L11.3139 19.6338ZM11.1491 15.0599H17.3764V16.9804H11.1491V15.0599ZM23.7372 7.99743V19.6338H21.277V7.99743H23.7372ZM29.4645 19.6338V7.99743H34.0554C34.9342 7.99743 35.6842 8.15462 36.3054 8.46902C36.9304 8.77962 37.4058 9.22091 37.7315 9.79288C38.0611 10.3611 38.2259 11.0296 38.2259 11.7986C38.2259 12.5713 38.0592 13.2361 37.7259 13.7929C37.3925 14.3459 36.9096 14.7702 36.277 15.0656C35.6482 15.3611 34.8868 15.5088 33.9929 15.5088H30.919V13.5315H33.5952C34.0649 13.5315 34.455 13.4671 34.7656 13.3383C35.0762 13.2095 35.3073 13.0164 35.4588 12.7588C35.6141 12.5012 35.6918 12.1811 35.6918 11.7986C35.6918 11.4122 35.6141 11.0864 35.4588 10.8213C35.3073 10.5561 35.0743 10.3554 34.7599 10.219C34.4493 10.0789 34.0573 10.0088 33.5838 10.0088H31.9247V19.6338H29.4645ZM35.7486 14.3383L38.6406 19.6338H35.9247L33.0952 14.3383H35.7486ZM43.7557 19.8042C42.858 19.8042 42.0852 19.6224 41.4375 19.2588C40.7936 18.8914 40.2973 18.3724 39.9489 17.702C39.6004 17.0277 39.4261 16.2304 39.4261 15.3099C39.4261 14.4122 39.6004 13.6243 39.9489 12.9463C40.2973 12.2683 40.7879 11.7398 41.4205 11.3611C42.0568 10.9823 42.803 10.7929 43.6591 10.7929C44.2348 10.7929 44.7708 10.8857 45.267 11.0713C45.767 11.2531 46.2027 11.5277 46.5739 11.8952C46.9489 12.2626 47.2405 12.7247 47.4489 13.2815C47.6572 13.8345 47.7614 14.4823 47.7614 15.2247V15.8895H40.392V14.3895H45.483C45.483 14.041 45.4072 13.7323 45.2557 13.4633C45.1042 13.1944 44.8939 12.9842 44.625 12.8327C44.3598 12.6773 44.0511 12.5997 43.6989 12.5997C43.3314 12.5997 43.0057 12.6849 42.7216 12.8554C42.4413 13.022 42.2216 13.2474 42.0625 13.5315C41.9034 13.8118 41.822 14.1243 41.8182 14.469V15.8952C41.8182 16.327 41.8977 16.7001 42.0568 17.0145C42.2197 17.3289 42.4489 17.5713 42.7443 17.7417C43.0398 17.9122 43.3902 17.9974 43.7955 17.9974C44.0644 17.9974 44.3106 17.9595 44.5341 17.8838C44.7576 17.808 44.9489 17.6944 45.108 17.5429C45.267 17.3914 45.3883 17.2058 45.4716 16.9861L47.7102 17.1338C47.5966 17.6717 47.3636 18.1414 47.0114 18.5429C46.6629 18.9406 46.2121 19.2512 45.6591 19.4747C45.1098 19.6944 44.4754 19.8042 43.7557 19.8042ZM49.3409 19.6338V10.9065H51.6477V12.4463H51.75C51.9318 11.9349 52.2348 11.5315 52.6591 11.2361C53.0833 10.9406 53.5909 10.7929 54.1818 10.7929C54.7803 10.7929 55.2898 10.9425 55.7102 11.2417C56.1307 11.5372 56.411 11.9387 56.5511 12.4463H56.642C56.8201 11.9463 57.142 11.5467 57.608 11.2474C58.0777 10.9444 58.6326 10.7929 59.2727 10.7929C60.0871 10.7929 60.7481 11.0523 61.2557 11.5713C61.767 12.0864 62.0227 12.8175 62.0227 13.7645V19.6338H59.608V14.2417C59.608 13.7569 59.4792 13.3933 59.2216 13.1508C58.964 12.9084 58.642 12.7872 58.2557 12.7872C57.8163 12.7872 57.4735 12.9273 57.2273 13.2077C56.9811 13.4842 56.858 13.8497 56.858 14.3042V19.6338H54.5114V14.1906C54.5114 13.7626 54.3883 13.4217 54.142 13.1679C53.8996 12.9141 53.5795 12.7872 53.1818 12.7872C52.9129 12.7872 52.6705 12.8554 52.4545 12.9917C52.2424 13.1243 52.0739 13.3118 51.9489 13.5542C51.8239 13.7929 51.7614 14.0732 51.7614 14.3952V19.6338H49.3409ZM67.8778 19.8042C66.9953 19.8042 66.232 19.6167 65.5881 19.2417C64.9479 18.863 64.4536 18.3364 64.1051 17.6622C63.7566 16.9842 63.5824 16.1982 63.5824 15.3042C63.5824 14.4027 63.7566 13.6148 64.1051 12.9406C64.4536 12.2626 64.9479 11.7361 65.5881 11.3611C66.232 10.9823 66.9953 10.7929 67.8778 10.7929C68.7604 10.7929 69.5218 10.9823 70.1619 11.3611C70.8059 11.7361 71.3021 12.2626 71.6506 12.9406C71.9991 13.6148 72.1733 14.4027 72.1733 15.3042C72.1733 16.1982 71.9991 16.9842 71.6506 17.6622C71.3021 18.3364 70.8059 18.863 70.1619 19.2417C69.5218 19.6167 68.7604 19.8042 67.8778 19.8042ZM67.8892 17.9292C68.2907 17.9292 68.6259 17.8156 68.8949 17.5883C69.1638 17.3573 69.3665 17.0429 69.5028 16.6452C69.643 16.2474 69.7131 15.7948 69.7131 15.2872C69.7131 14.7796 69.643 14.327 69.5028 13.9292C69.3665 13.5315 69.1638 13.2171 68.8949 12.9861C68.6259 12.755 68.2907 12.6395 67.8892 12.6395C67.4839 12.6395 67.143 12.755 66.8665 12.9861C66.5938 13.2171 66.3873 13.5315 66.2472 13.9292C66.1108 14.327 66.0426 14.7796 66.0426 15.2872C66.0426 15.7948 66.1108 16.2474 66.2472 16.6452C66.3873 17.0429 66.5938 17.3573 66.8665 17.5883C67.143 17.8156 67.4839 17.9292 67.8892 17.9292ZM81.6023 10.9065L78.5511 19.6338H75.8239L72.7727 10.9065H75.3295L77.142 17.1508H77.233L79.0398 10.9065H81.6023ZM86.5369 19.8042C85.6392 19.8042 84.8665 19.6224 84.2188 19.2588C83.5748 18.8914 83.0786 18.3724 82.7301 17.702C82.3816 17.0277 82.2074 16.2304 82.2074 15.3099C82.2074 14.4122 82.3816 13.6243 82.7301 12.9463C83.0786 12.2683 83.5691 11.7398 84.2017 11.3611C84.8381 10.9823 85.5843 10.7929 86.4403 10.7929C87.0161 10.7929 87.5521 10.8857 88.0483 11.0713C88.5483 11.2531 88.9839 11.5277 89.3551 11.8952C89.7301 12.2626 90.0218 12.7247 90.2301 13.2815C90.4384 13.8345 90.5426 14.4823 90.5426 15.2247V15.8895H83.1733V14.3895H88.2642C88.2642 14.041 88.1884 13.7323 88.0369 13.4633C87.8854 13.1944 87.6752 12.9842 87.4062 12.8327C87.1411 12.6773 86.8324 12.5997 86.4801 12.5997C86.1127 12.5997 85.7869 12.6849 85.5028 12.8554C85.2225 13.022 85.0028 13.2474 84.8438 13.5315C84.6847 13.8118 84.6032 14.1243 84.5994 14.469V15.8952C84.5994 16.327 84.679 16.7001 84.8381 17.0145C85.0009 17.3289 85.2301 17.5713 85.5256 17.7417C85.821 17.9122 86.1714 17.9974 86.5767 17.9974C86.8456 17.9974 87.0919 17.9595 87.3153 17.8838C87.5388 17.808 87.7301 17.6944 87.8892 17.5429C88.0483 17.3914 88.1695 17.2058 88.2528 16.9861L90.4915 17.1338C90.3778 17.6717 90.1449 18.1414 89.7926 18.5429C89.4441 18.9406 88.9934 19.2512 88.4403 19.4747C87.8911 19.6944 87.2566 19.8042 86.5369 19.8042ZM92.1222 19.6338V10.9065H94.4688V12.4292H94.5597C94.7188 11.8876 94.9858 11.4785 95.3608 11.202C95.7358 10.9217 96.1676 10.7815 96.6562 10.7815C96.7775 10.7815 96.9081 10.7891 97.0483 10.8042C97.1884 10.8194 97.3116 10.8402 97.4176 10.8667V13.0145C97.304 12.9804 97.1468 12.9501 96.946 12.9236C96.7453 12.897 96.5616 12.8838 96.3949 12.8838C96.0388 12.8838 95.7206 12.9614 95.4403 13.1167C95.1638 13.2683 94.9441 13.4804 94.7812 13.7531C94.6222 14.0258 94.5426 14.3402 94.5426 14.6963V19.6338H92.1222Z" fill="#1877F2"/>
<path d="M16.3181 27.6338C16.24 27.3947 16.137 27.1804 16.0091 26.991C15.8837 26.7993 15.7333 26.6359 15.5582 26.501C15.3853 26.366 15.1888 26.2631 14.9687 26.192C14.7485 26.121 14.507 26.0855 14.2442 26.0855C13.8134 26.0855 13.4215 26.1968 13.0688 26.4193C12.7161 26.6418 12.4355 26.9697 12.2272 27.403C12.0189 27.8362 11.9147 28.3677 11.9147 28.9974C11.9147 29.6272 12.02 30.1586 12.2307 30.5919C12.4414 31.0251 12.7267 31.353 13.0866 31.5756C13.4464 31.7981 13.8512 31.9094 14.301 31.9094C14.7177 31.9094 15.0847 31.8206 15.4019 31.643C15.7215 31.4631 15.9701 31.2098 16.1476 30.8831C16.3276 30.554 16.4175 30.1669 16.4175 29.7219L16.6874 29.7787H14.4999V28.9974H17.2698V29.7787C17.2698 30.3776 17.142 30.8985 16.8863 31.3412C16.633 31.7839 16.2826 32.1272 15.8351 32.371C15.3901 32.6125 14.8787 32.7332 14.301 32.7332C13.6571 32.7332 13.0913 32.5817 12.6036 32.2787C12.1183 31.9756 11.7395 31.5448 11.4672 30.9861C11.1974 30.4273 11.0624 29.7645 11.0624 28.9974C11.0624 28.4221 11.1394 27.9049 11.2932 27.4456C11.4495 26.9839 11.6697 26.5909 11.9537 26.2666C12.2378 25.9423 12.574 25.6937 12.9623 25.5209C13.3505 25.348 13.7778 25.2616 14.2442 25.2616C14.6278 25.2616 14.9852 25.3196 15.3167 25.4356C15.6505 25.5493 15.9476 25.7114 16.208 25.9221C16.4708 26.1305 16.6898 26.3802 16.865 26.6714C17.0402 26.9603 17.1609 27.281 17.2272 27.6338H16.3181ZM20.9514 32.7474C20.4259 32.7474 19.9725 32.6314 19.5914 32.3994C19.2126 32.165 18.9202 31.8383 18.7142 31.4193C18.5106 30.9979 18.4088 30.5078 18.4088 29.9491C18.4088 29.3904 18.5106 28.898 18.7142 28.4719C18.9202 28.0434 19.2066 27.7095 19.5736 27.4704C19.9429 27.229 20.3738 27.1082 20.8662 27.1082C21.1503 27.1082 21.4308 27.1556 21.7078 27.2503C21.9848 27.345 22.2369 27.4988 22.4642 27.7119C22.6915 27.9226 22.8726 28.202 23.0075 28.55C23.1425 28.898 23.21 29.3265 23.21 29.8355V30.1906H19.0054V29.4662H22.3577C22.3577 29.1584 22.2961 28.8838 22.173 28.6423C22.0523 28.4008 21.8795 28.2103 21.6546 28.0706C21.432 27.9309 21.1692 27.8611 20.8662 27.8611C20.5324 27.8611 20.2436 27.9439 19.9997 28.1096C19.7583 28.273 19.5724 28.4861 19.4422 28.7488C19.312 29.0116 19.2469 29.2934 19.2469 29.594V30.077C19.2469 30.4889 19.3179 30.8381 19.46 31.1246C19.6044 31.4086 19.8044 31.6253 20.0601 31.7744C20.3158 31.9212 20.6129 31.9946 20.9514 31.9946C21.1716 31.9946 21.3705 31.9638 21.548 31.9023C21.728 31.8383 21.883 31.7436 22.0132 31.6182C22.1434 31.4903 22.2441 31.3317 22.3151 31.1423L23.1247 31.3696C23.0395 31.6442 22.8963 31.8857 22.695 32.094C22.4938 32.3 22.2452 32.461 21.9493 32.577C21.6534 32.6906 21.3208 32.7474 20.9514 32.7474ZM25.3229 29.3525V32.6338H24.4848V27.1792H25.2945V28.0315H25.3655C25.4933 27.7545 25.6875 27.532 25.9479 27.3639C26.2083 27.1934 26.5445 27.1082 26.9564 27.1082C27.3257 27.1082 27.6489 27.184 27.9259 27.3355C28.2029 27.4846 28.4183 27.7119 28.5722 28.0173C28.7261 28.3203 28.803 28.7039 28.803 29.1679V32.6338H27.9649V29.2247C27.9649 28.7962 27.8537 28.4624 27.6311 28.2233C27.4086 27.9818 27.1032 27.8611 26.7149 27.8611C26.4474 27.8611 26.2083 27.9191 25.9976 28.0351C25.7893 28.1511 25.6247 28.3203 25.504 28.5429C25.3833 28.7654 25.3229 29.0353 25.3229 29.3525ZM32.6214 32.7474C32.0958 32.7474 31.6424 32.6314 31.2613 32.3994C30.8825 32.165 30.5901 31.8383 30.3841 31.4193C30.1805 30.9979 30.0787 30.5078 30.0787 29.9491C30.0787 29.3904 30.1805 28.898 30.3841 28.4719C30.5901 28.0434 30.8766 27.7095 31.2435 27.4704C31.6128 27.229 32.0437 27.1082 32.5361 27.1082C32.8202 27.1082 33.1008 27.1556 33.3778 27.2503C33.6547 27.345 33.9069 27.4988 34.1341 27.7119C34.3614 27.9226 34.5425 28.202 34.6775 28.55C34.8124 28.898 34.8799 29.3265 34.8799 29.8355V30.1906H30.6753V29.4662H34.0276C34.0276 29.1584 33.9661 28.8838 33.843 28.6423C33.7222 28.4008 33.5494 28.2103 33.3245 28.0706C33.1019 27.9309 32.8392 27.8611 32.5361 27.8611C32.2023 27.8611 31.9135 27.9439 31.6697 28.1096C31.4282 28.273 31.2423 28.4861 31.1121 28.7488C30.9819 29.0116 30.9168 29.2934 30.9168 29.594V30.077C30.9168 30.4889 30.9878 30.8381 31.1299 31.1246C31.2743 31.4086 31.4743 31.6253 31.73 31.7744C31.9857 31.9212 32.2828 31.9946 32.6214 31.9946C32.8415 31.9946 33.0404 31.9638 33.218 31.9023C33.3979 31.8383 33.5529 31.7436 33.6831 31.6182C33.8134 31.4903 33.914 31.3317 33.985 31.1423L34.7947 31.3696C34.7094 31.6442 34.5662 31.8857 34.365 32.094C34.1637 32.3 33.9152 32.461 33.6192 32.577C33.3233 32.6906 32.9907 32.7474 32.6214 32.7474ZM36.1547 32.6338V27.1792H36.9644V28.0031H37.0212C37.1206 27.7332 37.3006 27.5142 37.561 27.3461C37.8214 27.1781 38.115 27.094 38.4417 27.094C38.5032 27.094 38.5802 27.0952 38.6725 27.0976C38.7648 27.0999 38.8347 27.1035 38.882 27.1082V27.9605C38.8536 27.9534 38.7885 27.9427 38.6867 27.9285C38.5873 27.912 38.4819 27.9037 38.3706 27.9037C38.1055 27.9037 37.8688 27.9593 37.6604 28.0706C37.4545 28.1795 37.2911 28.331 37.1704 28.5251C37.052 28.7169 36.9928 28.9359 36.9928 29.1821V32.6338H36.1547ZM41.4806 32.7616C41.1349 32.7616 40.8212 32.6965 40.5395 32.5663C40.2578 32.4337 40.0341 32.2432 39.8683 31.9946C39.7026 31.7436 39.6198 31.4406 39.6198 31.0855C39.6198 30.773 39.6813 30.5197 39.8044 30.3256C39.9275 30.1291 40.0921 29.9752 40.298 29.8639C40.504 29.7526 40.7313 29.6698 40.9798 29.6153C41.2308 29.5585 41.4829 29.5135 41.7362 29.4804C42.0677 29.4378 42.3364 29.4058 42.5423 29.3845C42.7507 29.3608 42.9022 29.3218 42.9969 29.2673C43.094 29.2129 43.1425 29.1182 43.1425 28.9832V28.9548C43.1425 28.6044 43.0466 28.3322 42.8548 28.1381C42.6655 27.9439 42.3778 27.8469 41.9919 27.8469C41.5918 27.8469 41.2781 27.9345 41.0509 28.1096C40.8236 28.2848 40.6638 28.4719 40.5715 28.6707L39.776 28.3866C39.9181 28.0552 40.1075 27.7971 40.3442 27.6125C40.5833 27.4255 40.8437 27.2952 41.1254 27.2219C41.4095 27.1461 41.6889 27.1082 41.9635 27.1082C42.1387 27.1082 42.3399 27.1295 42.5672 27.1721C42.7968 27.2124 43.0182 27.2964 43.2313 27.4243C43.4467 27.5521 43.6254 27.7451 43.7675 28.0031C43.9095 28.2612 43.9806 28.6068 43.9806 29.04V32.6338H43.1425V31.8952H43.0999C43.0431 32.0135 42.9484 32.1402 42.8158 32.2751C42.6832 32.4101 42.5068 32.5249 42.2867 32.6196C42.0665 32.7143 41.7978 32.7616 41.4806 32.7616ZM41.6084 32.0088C41.9398 32.0088 42.2192 31.9437 42.4465 31.8135C42.6761 31.6833 42.8489 31.5152 42.9649 31.3092C43.0833 31.1032 43.1425 30.8866 43.1425 30.6594V29.8923C43.107 29.9349 43.0289 29.974 42.9081 30.0095C42.7897 30.0426 42.6524 30.0722 42.4962 30.0983C42.3423 30.122 42.192 30.1433 42.0452 30.1622C41.9008 30.1788 41.7836 30.193 41.6936 30.2048C41.4758 30.2332 41.2722 30.2794 41.0828 30.3433C40.8958 30.4049 40.7443 30.4984 40.6283 30.6238C40.5146 30.747 40.4578 30.915 40.4578 31.1281C40.4578 31.4193 40.5655 31.6395 40.781 31.7886C40.9988 31.9354 41.2746 32.0088 41.6084 32.0088ZM47.8824 27.1792V27.8895H45.0557V27.1792H47.8824ZM45.8795 25.8724H46.7176V31.0713C46.7176 31.308 46.7519 31.4856 46.8206 31.604C46.8916 31.72 46.9816 31.7981 47.0905 31.8383C47.2017 31.8762 47.3189 31.8952 47.442 31.8952C47.5344 31.8952 47.6101 31.8904 47.6693 31.8809C47.7285 31.8691 47.7758 31.8596 47.8113 31.8525L47.9818 32.6054C47.925 32.6267 47.8457 32.648 47.7439 32.6693C47.6421 32.693 47.5131 32.7048 47.3568 32.7048C47.1201 32.7048 46.8881 32.6539 46.6608 32.5521C46.4359 32.4503 46.2488 32.2952 46.0997 32.0869C45.9529 31.8786 45.8795 31.6158 45.8795 31.2986V25.8724ZM51.3714 32.7474C50.8458 32.7474 50.3924 32.6314 50.0113 32.3994C49.6325 32.165 49.3401 31.8383 49.1341 31.4193C48.9305 30.9979 48.8287 30.5078 48.8287 29.9491C48.8287 29.3904 48.9305 28.898 49.1341 28.4719C49.3401 28.0434 49.6266 27.7095 49.9935 27.4704C50.3628 27.229 50.7937 27.1082 51.2861 27.1082C51.5702 27.1082 51.8508 27.1556 52.1278 27.2503C52.4047 27.345 52.6569 27.4988 52.8841 27.7119C53.1114 27.9226 53.2925 28.202 53.4275 28.55C53.5624 28.898 53.6299 29.3265 53.6299 29.8355V30.1906H49.4253V29.4662H52.7776C52.7776 29.1584 52.7161 28.8838 52.593 28.6423C52.4722 28.4008 52.2994 28.2103 52.0745 28.0706C51.8519 27.9309 51.5892 27.8611 51.2861 27.8611C50.9523 27.8611 50.6635 27.9439 50.4197 28.1096C50.1782 28.273 49.9923 28.4861 49.8621 28.7488C49.7319 29.0116 49.6668 29.2934 49.6668 29.594V30.077C49.6668 30.4889 49.7378 30.8381 49.8799 31.1246C50.0243 31.4086 50.2243 31.6253 50.48 31.7744C50.7357 31.9212 51.0328 31.9946 51.3714 31.9946C51.5915 31.9946 51.7904 31.9638 51.968 31.9023C52.1479 31.8383 52.3029 31.7436 52.4331 31.6182C52.5634 31.4903 52.664 31.3317 52.735 31.1423L53.5447 31.3696C53.4594 31.6442 53.3162 31.8857 53.115 32.094C52.9137 32.3 52.6652 32.461 52.3692 32.577C52.0733 32.6906 51.7407 32.7474 51.3714 32.7474ZM56.9644 32.7474C56.5099 32.7474 56.1086 32.6326 55.7606 32.403C55.4126 32.171 55.1403 31.8443 54.9438 31.4229C54.7473 30.9991 54.6491 30.4984 54.6491 29.9207C54.6491 29.3478 54.7473 28.8506 54.9438 28.4292C55.1403 28.0078 55.4137 27.6823 55.7641 27.4527C56.1145 27.223 56.5193 27.1082 56.9786 27.1082C57.3337 27.1082 57.6143 27.1674 57.8202 27.2858C58.0286 27.4018 58.1872 27.5344 58.2961 27.6835C58.4073 27.8303 58.4938 27.951 58.5553 28.0457H58.6263V25.3611H59.4644V32.6338H58.6547V31.7957H58.5553C58.4938 31.8952 58.4062 32.0206 58.2925 32.1721C58.1789 32.3213 58.0167 32.455 57.806 32.5734C57.5953 32.6894 57.3148 32.7474 56.9644 32.7474ZM57.078 31.9946C57.4142 31.9946 57.6983 31.907 57.9303 31.7318C58.1623 31.5542 58.3387 31.3092 58.4594 30.9967C58.5802 30.6818 58.6405 30.3184 58.6405 29.9065C58.6405 29.4993 58.5814 29.143 58.463 28.8376C58.3446 28.5299 58.1694 28.2907 57.9374 28.1203C57.7054 27.9475 57.4189 27.8611 57.078 27.8611C56.7229 27.8611 56.427 27.9522 56.1903 28.1345C55.9559 28.3144 55.7795 28.5595 55.6611 28.8696C55.5451 29.1773 55.4871 29.523 55.4871 29.9065C55.4871 30.2948 55.5463 30.6475 55.6647 30.9648C55.7854 31.2796 55.963 31.5306 56.1974 31.7176C56.4341 31.9023 56.7277 31.9946 57.078 31.9946ZM65.164 32.6338L63.502 27.1792H64.3827L65.5617 31.3554H65.6185L66.7833 27.1792H67.6782L68.8287 31.3412H68.8856L70.0645 27.1792H70.9452L69.2833 32.6338H68.4594L67.2662 28.4434H67.181L65.9878 32.6338H65.164ZM72.0532 32.6338V27.1792H72.8912V32.6338H72.0532ZM72.4793 26.2702C72.316 26.2702 72.1751 26.2145 72.0567 26.1032C71.9407 25.992 71.8827 25.8582 71.8827 25.702C71.8827 25.5457 71.9407 25.412 72.0567 25.3007C72.1751 25.1894 72.316 25.1338 72.4793 25.1338C72.6427 25.1338 72.7823 25.1894 72.8983 25.3007C73.0167 25.412 73.0759 25.5457 73.0759 25.702C73.0759 25.8582 73.0167 25.992 72.8983 26.1032C72.7823 26.2145 72.6427 26.2702 72.4793 26.2702ZM76.7984 27.1792V27.8895H73.9717V27.1792H76.7984ZM74.7955 25.8724H75.6336V31.0713C75.6336 31.308 75.6679 31.4856 75.7366 31.604C75.8076 31.72 75.8976 31.7981 76.0065 31.8383C76.1177 31.8762 76.2349 31.8952 76.358 31.8952C76.4504 31.8952 76.5261 31.8904 76.5853 31.8809C76.6445 31.8691 76.6919 31.8596 76.7274 31.8525L76.8978 32.6054C76.841 32.6267 76.7617 32.648 76.6599 32.6693C76.5581 32.693 76.4291 32.7048 76.2728 32.7048C76.0361 32.7048 75.8041 32.6539 75.5768 32.5521C75.3519 32.4503 75.1649 32.2952 75.0157 32.0869C74.8689 31.8786 74.7955 31.6158 74.7955 31.2986V25.8724ZM79.0143 29.3525V32.6338H78.1762V25.3611H79.0143V28.0315H79.0853C79.2132 27.7498 79.4049 27.5261 79.6606 27.3604C79.9186 27.1923 80.2619 27.1082 80.6904 27.1082C81.0621 27.1082 81.3876 27.1828 81.667 27.3319C81.9463 27.4787 82.163 27.7048 82.3169 28.0102C82.4731 28.3132 82.5512 28.6991 82.5512 29.1679V32.6338H81.7132V29.2247C81.7132 28.7915 81.6007 28.4565 81.3758 28.2197C81.1533 27.9806 80.8443 27.8611 80.449 27.8611C80.1743 27.8611 79.9281 27.9191 79.7103 28.0351C79.4949 28.1511 79.3244 28.3203 79.199 28.5429C79.0758 28.7654 79.0143 29.0353 79.0143 29.3525ZM87.3089 32.6338H86.3856L89.056 25.3611H89.9651L92.6356 32.6338H91.7123L89.539 26.5116H89.4822L87.3089 32.6338ZM87.6498 29.7929H91.3714V30.5741H87.6498V29.7929ZM94.6491 25.3611V32.6338H93.7684V25.3611H94.6491Z" fill="white"/>
</svg>
